<svg xmlns="http://www.w3.org/2000/svg" width="170" height="26" fill="none"><path fill="#9A1441" fill-rule="evenodd" d="M22.829 17.12h-9.133V.848h-1.78v17.35h13.102l-2.24 5.173c.047-.011.102-.027.162-.044.16-.047.361-.105.564-.117 1.16-.074 1.73-.624 1.703-1.837-.006-.449.13-.91.262-1.357l.066-.224c.171-.604.364-1.202.566-1.83v-.001c.087-.27.175-.544.264-.826h-1.74V.833h-1.843c.02.873.044 1.741.069 2.607.052 1.857.104 3.7.11 5.542.005 1.854-.037 3.707-.079 5.572v.001c-.02.853-.038 1.708-.053 2.566Zm74.232-.716c-1.047-1.17-1.482-2.58-1.632-4.167.067-.26.123-.527.179-.793.12-.574.242-1.149.472-1.677 1.2-2.743 4.552-3.235 6.449-.914 1.63 1.995 1.946 4.283.87 6.64-1.205 2.643-4.394 3.077-6.338.91Zm8.969-15.34.012-.072a22.56 22.56 0 0 0-.536.13c-.373.095-.727.185-1.089.228-.735.083-1.472.154-2.209.224-1.075.103-2.15.206-3.221.35-2.92.398-4.758 2.198-5.045 5.118-.183 1.855-.152 3.737-.122 5.605l.003.146c.042 2.723 2.118 5.119 4.779 5.637 2.729.53 5.451-.895 6.607-3.455 1.123-2.498.35-5.455-1.871-7.137a5.906 5.906 0 0 0-7.376.172c-.345.286-.703.556-1.013.79l-.316.24c-.538-2.319.772-4.804 3.307-5.41 1.434-.346 2.94-.428 4.431-.51.203-.01.406-.022.609-.034l.16-.009c1.934-.113 1.961-.115 2.865-1.91a.338.338 0 0 0 .025-.104ZM43.553 7.861c1.268.706 1.628 1.94 1.632 3.4h-7.56c.142-1.302.598-2.398 1.676-3.118 1.343-.899 2.81-1.088 4.252-.282Zm-5.995 4.296h9.53c.149-3.785-2.85-6.154-6.618-5.36-2.663.563-4.597 2.777-4.734 5.423-.145 2.778 1.41 5.203 3.964 5.99 2.244.694 4.378.296 6.35-.964.868-.553.918-.724.652-1.816-1.873 1.888-3.985 3.068-6.66 1.859-1.67-.757-2.737-3.129-2.484-5.132Zm81.916 4.86c-1.585-1.186-2.139-2.87-2.229-5.321.043-.13.087-.298.137-.491.145-.551.342-1.307.71-1.968 1.1-1.985 3.573-2.43 5.411-1.097 2.395 1.735 2.959 5.91 1.116 8.224-1.268 1.591-3.497 1.89-5.145.653Zm-3.943-4.457c-.008 3.281 2.672 5.967 5.952 5.967 3.281-.002 5.981-2.696 5.971-5.959-.011-3.268-2.714-5.94-6-5.93-3.246.008-5.918 2.68-5.923 5.922Zm44.304-5.526h-1.764c.008.102.011.2.015.296.007.192.013.37.053.54.233.982-.008 1.797-.688 2.56-.449.507-.846 1.06-1.243 1.613a43.04 43.04 0 0 1-.54.741c-.134.181-.275.358-.416.536l-.055.07-.078.098-.03-.014h-.001l-.145-.068.143-4.004v-.01l.084-2.353h-1.693v11.08h1.74c-.014-.223-.03-.442-.045-.66v-.001a84.53 84.53 0 0 1-.115-1.883c-.011-.21-.024-.48.087-.632.801-1.11 1.623-2.207 2.494-3.369l.557-.742v7.292h1.64V7.035ZM29.804 11.23c-.177-.002-.359-.004-.546-.004V7.876c.873-.283 1.86-.043 2.33.566.487.632.516 1.784.02 2.493a.775.775 0 0 1-.522.28c-.417.024-.836.02-1.282.016Zm-.456 6.148v-5.202c1.21-.383 2.25-.159 2.918.65.635.775.777 2.372.247 3.287-.686 1.184-1.793 1.41-3.165 1.265Zm4.888-3.69c-.28-1.009-1.003-1.655-1.912-2.177.065-.061.126-.115.183-.166.104-.091.195-.171.272-.263.63-.744.879-1.587.588-2.538-.271-.889-.993-1.339-1.822-1.405-.91-.07-1.827-.055-2.716-.04-.37.007-.736.014-1.095.014v10.995c.346 0 .701.013 1.063.025.823.028 1.678.058 2.514-.054 2.294-.303 3.523-2.242 2.925-4.39Zm101.51 4.439V7.032h-1.651v4.193h-3.212c.079-1.433.153-2.796.227-4.172h-1.723v11.05h1.641v-5.908h3.077v5.933h1.641ZM87.583 9.074c.433-1.017 1.37-1.452 2.828-1.23v.875c0 1.321.001 2.66-.014 4 0 .122-.153.301-.277.354-.913.392-2.03-.008-2.453-.923-.46-.999-.516-2.047-.084-3.076Zm2.64 9.05h1.71V7.065c-.354 0-.709-.007-1.064-.015-.795-.016-1.592-.033-2.381.033-1.303.11-2.229.896-2.498 2.158-.18.831-.14 1.763.035 2.6.213 1.017 1.078 1.583 2.072 2.03l-1.724 2.705v.002l-1.013 1.588c.141 0 .273-.005.398-.008.262-.009.493-.016.72.018.58.084.855-.166 1.105-.68.28-.575.598-1.133.915-1.69.24-.424.482-.848.707-1.28.266-.514.636-.667 1.258-.572l-.24 4.172ZM73.65 23.72l-.52 1.701.488-.237h.002c.459-.222.966-.467 1.462-.735.131-.071.202-.312.245-.486.321-1.364.638-2.73.954-4.095l.002-.004v-.005a638.532 638.532 0 0 1 1.808-7.648c.291-1.188.653-2.359 1.017-3.54.166-.537.333-1.076.494-1.62h-1.38l-.633 2.752-.016.072-.012.052-.007.03-1.217 5.296-.131-.005a7.745 7.745 0 0 1-.239-.01l-1.061-4.685-.004-.018-.791-3.492h-1.815l.016.093c.01.068.019.116.032.163.24.834.483 1.668.725 2.501l.002.004v.005c.64 2.2 1.28 4.4 1.897 6.607.25.896.398 1.808.095 2.754-.489 1.517-.953 3.04-1.413 4.55ZM151.388 7.56l.377-.569c-.128 0-.25.003-.368.005-.256.006-.489.01-.719-.013-.516-.052-.762.116-.925.657-.16.531-.369 1.047-.578 1.563-.178.44-.356.878-.503 1.328-.235.717-.646.915-1.317.688V7.038h-1.616v11.066h1.624v-5.901c.742-.221 1.089.066 1.306.764.202.662.439 1.314.676 1.966h.001c.207.57.414 1.141.599 1.719l.024.074c.475 1.475.477 1.482 2.068 1.433.045-.002.091-.02.131-.036a.718.718 0 0 1 .043-.016 691.19 691.19 0 0 1-.712-1.886c-.597-1.583-1.19-3.159-1.804-4.727-.219-.556-.217-1.041.106-1.529a432.46 432.46 0 0 1 1.581-2.394l.006-.01Zm-39.256.359v10.163h1.634V7.056h-4.588c-.109.632-.207 1.257-.305 1.876-.222 1.413-.438 2.792-.761 4.146-.323 1.367-.753 2.71-1.183 4.057a118.01 118.01 0 0 0-.555 1.765c.165-.055.337-.11.515-.168.448-.144.928-.299 1.394-.486.143-.058.261-.319.291-.503.086-.546.163-1.094.239-1.642.113-.814.227-1.627.375-2.435.251-1.366.536-2.727.82-4.081V9.58l.001-.002c.116-.554.232-1.107.345-1.659h1.778ZM61.35 15.576c-.259 1.326-1.205 1.911-2.904 1.808v-5.176c1.466-.585 2.6-.026 2.901 1.552.11.586.116 1.232.003 1.816Zm-4.491.799c-.023.588-.047 1.183-.067 1.79.294 0 .59 0 .89.002.667.003 1.343.006 2.02-.005 1.98-.034 3.275-1.373 3.293-3.387.021-2.066-1.318-3.51-3.31-3.563-.297-.008-.593-.006-.92-.004l-.472.001.119-1.925v-.01c.047-.748.092-1.488.14-2.232H56.79c.02.596.044 1.187.068 1.774a89.57 89.57 0 0 1 .103 3.716c0 1.269-.05 2.537-.102 3.843Zm85.77-.799c-.255 1.324-1.202 1.911-2.903 1.808V12.21c1.458-.59 2.6-.028 2.901 1.547.111.589.115 1.232.002 1.82Zm-4.504-8.541v11.127c.279 0 .568.002.863.004.681.005 1.397.01 2.114-.01 1.886-.055 3.139-1.393 3.173-3.357.037-1.997-1.263-3.487-3.139-3.579-.319-.016-.641-.012-.996-.007a43.18 43.18 0 0 1-.565.004l.095-1.555.003-.053.007-.1c.05-.825.099-1.642.151-2.474h-1.706Zm-82.858.578.112-.568H48.23c.05.26.093.498.135.724l.002.007.093.505.576-.088c.678-.103 1.314-.2 1.938-.297V18.11h1.642V7.894l2.349.358h.001l.17.026.13-.665Zm10.647 10.52h-1.646V7.04h1.646v11.092Zm101.513-7.778 1.97 1.969-1.97 1.969-1.97-1.97 1.97-1.968ZM4.923 12.324l-1.97-1.969-1.97 1.969 1.97 1.969 1.97-1.97Z" clip-rule="evenodd"/></svg>