<svg xmlns="http://www.w3.org/2000/svg" width="18" height="24" fill="none"><path fill="#9A1441" fill-rule="evenodd" d="M16.5 9.23c0 2.6-1.17 5.2-2.74 7.5a29.92 29.92 0 0 1-4.59 5.16.25.25 0 0 1-.17.07.25.25 0 0 1-.17-.07 29.92 29.92 0 0 1-4.6-5.16c-1.56-2.3-2.73-4.9-2.73-7.5C1.5 4.93 4.9 1.5 9 1.5s7.5 3.43 7.5 7.73Zm1.5 0c0 6.07-5.4 11.6-7.83 13.78-.67.6-1.67.6-2.34 0C5.39 20.82 0 15.3 0 9.23 0 4.13 4.03 0 9 0s9 4.13 9 9.23ZM11.5 9a2.5 2.5 0 1 1-5 0 2.5 2.5 0 0 1 5 0ZM13 9a4 4 0 1 1-8 0 4 4 0 0 1 8 0Z" clip-rule="evenodd"/></svg>