<svg xmlns="http://www.w3.org/2000/svg" width="22" height="19" fill="none"><path fill="#A2A2A2" fill-rule="evenodd" d="M10.04 1.817c-2.402-2.555-6.5-2.38-8.712.303-1.96 2.412-1.96 6.437 1.431 8.954.57.418 1.097.795 1.59 1.147 2.153 1.54 3.642 2.604 5.15 4.56.583.755.875 1.133 1.137 1.233.26.1.453.1.714 0 .263-.1.555-.476 1.139-1.23 1.515-1.956 3.004-3.02 5.156-4.558.494-.354 1.023-.732 1.596-1.152 3.392-2.517 3.392-6.542 1.43-8.954-2.212-2.668-6.323-2.854-8.727-.302-.36.382-.682.825-.953 1.33a6.264 6.264 0 0 0-.951-1.33Zm9.473 1.255a4.343 4.343 0 0 0-7.2.786L10.99 6.32 9.67 3.858C8.112.958 4.385.776 2.489 3.071 1.043 4.853.984 7.886 3.649 9.867c.533.39 1.036.75 1.516 1.093 2.175 1.552 3.867 2.76 5.522 4.904l.308.397.308-.395c1.661-2.144 3.352-3.351 5.525-4.902.483-.344.988-.705 1.522-1.097 2.665-1.98 2.607-5.013 1.163-6.795Z" clip-rule="evenodd"/></svg>