<svg xmlns="http://www.w3.org/2000/svg" width="22" height="22" fill="none"><path stroke="#A2A2A2" stroke-linecap="round" stroke-width="1.5" d="M11.04 11.5H11m0 0c-2.47-1.16-6.51-10 0-10m0 10 .02-.04m-.02.05C9.1 13.45-.74 14.48 1.27 8.4m9.72 3.1-.04-.03m.04.03c1.3 2.36-.73 11.84-6 8.1m6-8.1-.04.03m.04-.03c2.7-.48 11.28 4.34 6.01 8.1m-6-8.1v.04m0-.04c.36-2.66 7.7-9.16 9.71-3.1M11.04 1.5c2.37 0 3.35 1.17 3.5 2.71M1.3 8.37c.74-2.25 2.22-2.77 3.8-2.4m-.15 13.6c-1.9-1.35-2-2.85-1.21-4.19m13.23 4.25c-1.93 1.37-3.42.98-4.48-.2m8.25-10.97c.78 2.37-.23 3.65-1.87 4.22"/></svg>