<svg xmlns="http://www.w3.org/2000/svg" width="22" height="22" fill="none"><path fill="#A2A2A2" fill-rule="evenodd" d="M16.9005 18.4459C19.0935 16.7057 20.5 14.0171 20.5 11c0-5.2467-4.2533-9.5-9.5-9.5S1.5 5.7533 1.5 11c0 3.017 1.4064 5.7056 3.5994 7.4458 1.3664-1.455 3.2905-2.3826 5.4332-2.4428.1087-.003.2344-.003.4519-.003h.0309c.2175 0 .3431 0 .4519.003 2.1428.0602 4.0668.9878 5.4332 2.4429Zm-1.2667.8493c-1.0895-1.0723-2.5696-1.7468-4.2086-1.7927-.0849-.0024-.188-.0025-.4253-.0025-.2372 0-.3403.0001-.4252.0025-1.639.0459-3.119.7204-4.2085 1.7927C7.7369 20.0626 9.3174 20.5 11 20.5c1.6826 0 3.263-.4374 4.6338-1.2048ZM11 22c6.0751 0 11-4.9249 11-11S17.0751 0 11 0 0 4.9249 0 11s4.9249 11 11 11Zm4.2824-12.9008-.1081 1.514C15.0179 12.8032 13.1956 14.5 11 14.5c-2.1956 0-4.0179-1.6968-4.1743-3.8868l-.1082-1.514C6.54 6.614 8.5084 4.5 11 4.5s4.46 2.114 4.2824 4.5992Zm-1.4961-.1068-.1082 1.514C13.5778 11.9114 12.4086 13 11 13s-2.5778-1.0886-2.6781-2.4936l-.1082-1.514C8.0982 7.3754 9.379 6 11 6c1.6211 0 2.9018 1.3754 2.7863 2.9924Z" clip-rule="evenodd"/></svg>