<svg id="all" xmlns="http://www.w3.org/2000/svg">
	<symbol id="main"
		viewBox="0 0 22 22" fill="none">
		<path stroke="currentColor" stroke-linecap="round" stroke-width="1.5" d="M11.04 11.5H11m0 0c-2.47-1.16-6.51-10 0-10m0 10 .02-.04m-.02.05C9.1 13.45-.74 14.48 1.27 8.4m9.72 3.1-.04-.03m.04.03c1.3 2.36-.73 11.84-6 8.1m6-8.1-.04.03m.04-.03c2.7-.48 11.28 4.34 6.01 8.1m-6-8.1v.04m0-.04c.36-2.66 7.7-9.16 9.71-3.1M11.04 1.5c2.37 0 3.35 1.17 3.5 2.71M1.3 8.37c.74-2.25 2.22-2.77 3.8-2.4m-.15 13.6c-1.9-1.35-2-2.85-1.21-4.19m13.23 4.25c-1.93 1.37-3.42.98-4.48-.2m8.25-10.97c.78 2.37-.23 3.65-1.87 4.22"/>
	</symbol>
	<symbol id="catalog"
		viewBox="0 0 24 17" fill="none">
		<path fill="currentColor" fill-rule="evenodd" d="M14.5 13.5a6 6 0 1 0 0-12 6 6 0 0 0 0 12Zm0 1.5c1.8 0 3.45-.63 4.75-1.7l3.22 3.23a.75.75 0 1 0 1.06-1.06l-3.22-3.22A7.5 7.5 0 1 0 14.5 15ZM.75 1a.75.75 0 0 0 0 1.5h5.5a.75.75 0 0 0 0-1.5H.75ZM0 7.75C0 7.34.34 7 .75 7h3.5a.75.75 0 0 1 0 1.5H.75A.75.75 0 0 1 0 7.75ZM.75 13a.75.75 0 0 0 0 1.5h5.5a.75.75 0 0 0 0-1.5H.75Z" clip-rule="evenodd"/>
	</symbol>
	<symbol id="cart"
		viewBox="0 0 18 21" fill="none">
		<path fill="currentColor" fill-rule="evenodd" d="M9 0a3.75 3.75 0 0 0-3.75 3.75V4h.201c-.301 0-.596.002-.852.021-.31.024-.672.08-1.045.25A3 3 0 0 0 2.276 5.38a3.018 3.018 0 0 0-.395 1c-.061.273-.107.597-.154.926L.399 16.6c-.061.428-.12.838-.14 1.185-.02.377-.009.833.175 1.305a3 3 0 0 0 1.32 1.523c.442.248.892.325 1.268.357.347.03.76.03 1.193.03h9.57c.432 0 .846 0 1.193-.03.375-.032.826-.108 1.267-.357a3 3 0 0 0 1.32-1.523c.184-.472.196-.928.175-1.305-.02-.347-.078-.757-.14-1.185l-1.327-9.295c-.047-.328-.093-.652-.154-.926a3.018 3.018 0 0 0-.395-1 3 3 0 0 0-1.278-1.108 3.018 3.018 0 0 0-1.046-.25A11.74 11.74 0 0 0 12.548 4h.202v-.25A3.75 3.75 0 0 0 9 0Zm2.25 4v-.25a2.25 2.25 0 0 0-4.5 0V4h4.5Zm3.211 2.19c.177.275.229.64.333 1.37l1.314 9.2c.136.945.203 1.418.06 1.785a1.5 1.5 0 0 1-.66.761c-.344.194-.82.194-1.775.194H4.267c-.954 0-1.432 0-1.775-.194a1.5 1.5 0 0 1-.66-.76c-.143-.368-.076-.84.06-1.785l1.313-9.2c.105-.731.157-1.096.333-1.371a1.5 1.5 0 0 1 .64-.554C4.473 5.5 4.842 5.5 5.58 5.5h6.837c.738 0 1.107 0 1.404.136a1.5 1.5 0 0 1 .64.554Z" clip-rule="evenodd"/>
	</symbol>
	<symbol id="favorites"
		viewBox="0 0 22 19" fill="none">
		<path fill="currentColor" fill-rule="evenodd" d="M10.04 1.817c-2.402-2.555-6.5-2.38-8.712.303-1.96 2.412-1.96 6.437 1.431 8.954.57.418 1.097.795 1.59 1.147 2.153 1.54 3.642 2.604 5.15 4.56.583.755.875 1.133 1.137 1.233.26.1.453.1.714 0 .263-.1.555-.476 1.139-1.23 1.515-1.956 3.004-3.02 5.156-4.558.494-.354 1.023-.732 1.596-1.152 3.392-2.517 3.392-6.542 1.43-8.954-2.212-2.668-6.323-2.854-8.727-.302-.36.382-.682.825-.953 1.33a6.264 6.264 0 0 0-.951-1.33Zm9.473 1.255a4.343 4.343 0 0 0-7.2.786L10.99 6.32 9.67 3.858C8.112.958 4.385.776 2.489 3.071 1.043 4.853.984 7.886 3.649 9.867c.533.39 1.036.75 1.516 1.093 2.175 1.552 3.867 2.76 5.522 4.904l.308.397.308-.395c1.661-2.144 3.352-3.351 5.525-4.902.483-.344.988-.705 1.522-1.097 2.665-1.98 2.607-5.013 1.163-6.795Z" clip-rule="evenodd"/>
	</symbol>
	<symbol id="profile"
		viewBox="0 0 24 24" fill="none">
		<path fill="currentColor" fill-rule="evenodd" d="M16.9005 18.4459C19.0935 16.7057 20.5 14.0171 20.5 11c0-5.2467-4.2533-9.5-9.5-9.5S1.5 5.7533 1.5 11c0 3.017 1.4064 5.7056 3.5994 7.4458 1.3664-1.455 3.2905-2.3826 5.4332-2.4428.1087-.003.2344-.003.4519-.003h.0309c.2175 0 .3431 0 .4519.003 2.1428.0602 4.0668.9878 5.4332 2.4429Zm-1.2667.8493c-1.0895-1.0723-2.5696-1.7468-4.2086-1.7927-.0849-.0024-.188-.0025-.4253-.0025-.2372 0-.3403.0001-.4252.0025-1.639.0459-3.119.7204-4.2085 1.7927C7.7369 20.0626 9.3174 20.5 11 20.5c1.6826 0 3.263-.4374 4.6338-1.2048ZM11 22c6.0751 0 11-4.9249 11-11S17.0751 0 11 0 0 4.9249 0 11s4.9249 11 11 11Zm4.2824-12.9008-.1081 1.514C15.0179 12.8032 13.1956 14.5 11 14.5c-2.1956 0-4.0179-1.6968-4.1743-3.8868l-.1082-1.514C6.54 6.614 8.5084 4.5 11 4.5s4.46 2.114 4.2824 4.5992Zm-1.4961-.1068-.1082 1.514C13.5778 11.9114 12.4086 13 11 13s-2.5778-1.0886-2.6781-2.4936l-.1082-1.514C8.0982 7.3754 9.379 6 11 6c1.6211 0 2.9018 1.3754 2.7863 2.9924Z" clip-rule="evenodd"/>
	</symbol>
</svg>