<svg xmlns="http://www.w3.org/2000/svg" width="24" height="24" fill="none"><path fill="#9A1441" fill-rule="evenodd" d="M12.53 1.47a.75.75 0 0 0-1.06 0l-2.5 2.5a.75.75 0 0 0 1.06 1.06l1.22-1.22V11a.75.75 0 0 0 1.5 0V3.81l1.22 1.22a.75.75 0 1 0 1.06-1.06l-2.5-2.5ZM7.3 7.62c.39-.08.7-.39.7-.78 0-.43-.37-.79-.8-.72-.4.07-.72.16-1.02.32a4 4 0 0 0-1.74 1.74C4 9.04 4 10.16 4 12.4v3.2c0 2.24 0 3.36.44 4.22a4 4 0 0 0 1.74 1.74c.86.44 1.98.44 4.22.44h3.2c2.24 0 3.36 0 4.22-.44a4 4 0 0 0 1.74-1.74c.44-.86.44-1.98.44-4.22v-3.2c0-2.24 0-3.36-.44-4.22a4 4 0 0 0-1.74-1.74 3.4 3.4 0 0 0-1.02-.32c-.43-.07-.8.29-.8.72 0 .4.31.7.7.78.15.04.3.08.44.15.47.24.85.62 1.09 1.1.09.18.17.45.22 1.02.05.6.05 1.37.05 2.51v3.2c0 1.14 0 1.91-.05 2.5-.05.58-.13.85-.22 1.04a2.5 2.5 0 0 1-1.1 1.09c-.18.09-.45.17-1.02.22-.6.05-1.37.05-2.51.05h-3.2c-1.14 0-1.91 0-2.5-.05a2.72 2.72 0 0 1-1.03-.22 2.5 2.5 0 0 1-1.1-1.1c-.09-.18-.17-.45-.22-1.02-.05-.6-.05-1.37-.05-2.51v-3.2c0-1.14 0-1.91.05-2.5.05-.58.13-.85.22-1.03a2.5 2.5 0 0 1 1.1-1.1c.13-.07.28-.11.43-.15Z" clip-rule="evenodd"/></svg>