<svg id="all" xmlns="http://www.w3.org/2000/svg">
	<symbol id="main"
		viewBox="0 0 22 22" fill="none">
		<path stroke="currentColor" stroke-linecap="round" stroke-width="1.5" d="M11.04 11.5H11m0 0c-2.47-1.16-6.51-10 0-10m0 10 .02-.04m-.02.05C9.1 13.45-.74 14.48 1.27 8.4m9.72 3.1-.04-.03m.04.03c1.3 2.36-.73 11.84-6 8.1m6-8.1-.04.03m.04-.03c2.7-.48 11.28 4.34 6.01 8.1m-6-8.1v.04m0-.04c.36-2.66 7.7-9.16 9.71-3.1M11.04 1.5c2.37 0 3.35 1.17 3.5 2.71M1.3 8.37c.74-2.25 2.22-2.77 3.8-2.4m-.15 13.6c-1.9-1.35-2-2.85-1.21-4.19m13.23 4.25c-1.93 1.37-3.42.98-4.48-.2m8.25-10.97c.78 2.37-.23 3.65-1.87 4.22"/>
	</symbol>
	<symbol id="share"
		viewBox="0 0 24 24" fill="none">
		<path fill="currentColor" fill-rule="evenodd" d="M12.53 1.47a.75.75 0 0 0-1.06 0l-2.5 2.5a.75.75 0 0 0 1.06 1.06l1.22-1.22V11a.75.75 0 0 0 1.5 0V3.81l1.22 1.22a.75.75 0 1 0 1.06-1.06l-2.5-2.5ZM7.3 7.62c.39-.08.7-.39.7-.78 0-.43-.37-.79-.8-.72-.4.07-.72.16-1.02.32a4 4 0 0 0-1.74 1.74C4 9.04 4 10.16 4 12.4v3.2c0 2.24 0 3.36.44 4.22a4 4 0 0 0 1.74 1.74c.86.44 1.98.44 4.22.44h3.2c2.24 0 3.36 0 4.22-.44a4 4 0 0 0 1.74-1.74c.44-.86.44-1.98.44-4.22v-3.2c0-2.24 0-3.36-.44-4.22a4 4 0 0 0-1.74-1.74 3.4 3.4 0 0 0-1.02-.32c-.43-.07-.8.29-.8.72 0 .4.31.7.7.78.15.04.3.08.44.15.47.24.85.62 1.09 1.1.09.18.17.45.22 1.02.05.6.05 1.37.05 2.51v3.2c0 1.14 0 1.91-.05 2.5-.05.58-.13.85-.22 1.04a2.5 2.5 0 0 1-1.1 1.09c-.18.09-.45.17-1.02.22-.6.05-1.37.05-2.51.05h-3.2c-1.14 0-1.91 0-2.5-.05a2.72 2.72 0 0 1-1.03-.22 2.5 2.5 0 0 1-1.1-1.1c-.09-.18-.17-.45-.22-1.02-.05-.6-.05-1.37-.05-2.51v-3.2c0-1.14 0-1.91.05-2.5.05-.58.13-.85.22-1.03a2.5 2.5 0 0 1 1.1-1.1c.13-.07.28-.11.43-.15Z" clip-rule="evenodd"/>
	</symbol>
	<symbol id="prev"
		viewBox="0 0 20 18" fill="none">
		<path fill="currentColor" fill-rule="evenodd" d="M20 9a1 1 0 0 1-1 1H3.41l6.3 6.3a1 1 0 0 1-1.42 1.4l-8-8a1 1 0 0 1 0-1.4l8-8a1 1 0 0 1 1.42 1.4L3.4 8H19a1 1 0 0 1 1 1Z" clip-rule="evenodd"/>
	</symbol>
</svg>