<svg xmlns="http://www.w3.org/2000/svg" width="16" height="16" fill="none"><path fill="#CF225D" fill-rule="evenodd" d="M.16.82C0 1.14 0 1.56 0 2.4v2.2c0 .84 0 1.26.16 1.58.15.28.38.51.66.66.32.16.74.16 1.58.16h11.2c.84 0 1.26 0 1.58-.16.28-.15.51-.38.66-.66.16-.32.16-.74.16-1.58V2.4c0-.84 0-1.26-.16-1.58a1.5 1.5 0 0 0-.66-.66C14.86 0 14.44 0 13.6 0H2.4C1.56 0 1.14 0 .82.16a1.5 1.5 0 0 0-.66.66Zm0 9C0 10.14 0 10.56 0 11.4v2.2c0 .84 0 1.26.16 1.58.15.28.38.51.66.66.32.16.74.16 1.58.16h11.2c.84 0 1.26 0 1.58-.16.28-.15.51-.38.66-.66.16-.32.16-.74.16-1.58v-2.2c0-.84 0-1.26-.16-1.58a1.5 1.5 0 0 0-.66-.66C14.86 9 14.44 9 13.6 9H2.4c-.84 0-1.26 0-1.58.16a1.5 1.5 0 0 0-.66.66Z" clip-rule="evenodd"/></svg>