<svg xmlns="http://www.w3.org/2000/svg">
	<symbol id="main"
		viewBox="0 0 22 22" fill="none">
		<path stroke="currentColor" stroke-linecap="round" stroke-width="1.5" d="M11.04 11.5H11m0 0c-2.47-1.16-6.51-10 0-10m0 10 .02-.04m-.02.05C9.1 13.45-.74 14.48 1.27 8.4m9.72 3.1-.04-.03m.04.03c1.3 2.36-.73 11.84-6 8.1m6-8.1-.04.03m.04-.03c2.7-.48 11.28 4.34 6.01 8.1m-6-8.1v.04m0-.04c.36-2.66 7.7-9.16 9.71-3.1M11.04 1.5c2.37 0 3.35 1.17 3.5 2.71M1.3 8.37c.74-2.25 2.22-2.77 3.8-2.4m-.15 13.6c-1.9-1.35-2-2.85-1.21-4.19m13.23 4.25c-1.93 1.37-3.42.98-4.48-.2m8.25-10.97c.78 2.37-.23 3.65-1.87 4.22"/>
	</symbol>
	<symbol id="catalog"
		viewBox="0 0 24 17" fill="none">
		<path fill="currentColor" fill-rule="evenodd" d="M14.5 13.5a6 6 0 1 0 0-12 6 6 0 0 0 0 12Zm0 1.5c1.8 0 3.45-.63 4.75-1.7l3.22 3.23a.75.75 0 1 0 1.06-1.06l-3.22-3.22A7.5 7.5 0 1 0 14.5 15ZM.75 1a.75.75 0 0 0 0 1.5h5.5a.75.75 0 0 0 0-1.5H.75ZM0 7.75C0 7.34.34 7 .75 7h3.5a.75.75 0 0 1 0 1.5H.75A.75.75 0 0 1 0 7.75ZM.75 13a.75.75 0 0 0 0 1.5h5.5a.75.75 0 0 0 0-1.5H.75Z" clip-rule="evenodd"/>
	</symbol>
	<symbol id="cart"
		viewBox="0 0 18 21" fill="none">
		<path fill="currentColor" fill-rule="evenodd" d="M9 0a3.75 3.75 0 0 0-3.75 3.75V4h.201c-.301 0-.596.002-.852.021-.31.024-.672.08-1.045.25A3 3 0 0 0 2.276 5.38a3.018 3.018 0 0 0-.395 1c-.061.273-.107.597-.154.926L.399 16.6c-.061.428-.12.838-.14 1.185-.02.377-.009.833.175 1.305a3 3 0 0 0 1.32 1.523c.442.248.892.325 1.268.357.347.03.76.03 1.193.03h9.57c.432 0 .846 0 1.193-.03.375-.032.826-.108 1.267-.357a3 3 0 0 0 1.32-1.523c.184-.472.196-.928.175-1.305-.02-.347-.078-.757-.14-1.185l-1.327-9.295c-.047-.328-.093-.652-.154-.926a3.018 3.018 0 0 0-.395-1 3 3 0 0 0-1.278-1.108 3.018 3.018 0 0 0-1.046-.25A11.74 11.74 0 0 0 12.548 4h.202v-.25A3.75 3.75 0 0 0 9 0Zm2.25 4v-.25a2.25 2.25 0 0 0-4.5 0V4h4.5Zm3.211 2.19c.177.275.229.64.333 1.37l1.314 9.2c.136.945.203 1.418.06 1.785a1.5 1.5 0 0 1-.66.761c-.344.194-.82.194-1.775.194H4.267c-.954 0-1.432 0-1.775-.194a1.5 1.5 0 0 1-.66-.76c-.143-.368-.076-.84.06-1.785l1.313-9.2c.105-.731.157-1.096.333-1.371a1.5 1.5 0 0 1 .64-.554C4.473 5.5 4.842 5.5 5.58 5.5h6.837c.738 0 1.107 0 1.404.136a1.5 1.5 0 0 1 .64.554Z" clip-rule="evenodd"/>
	</symbol>
	<symbol id="favorites"
		viewBox="0 0 22 19" fill="none">
		<path fill="currentColor" fill-rule="evenodd" d="M10.04 1.817c-2.402-2.555-6.5-2.38-8.712.303-1.96 2.412-1.96 6.437 1.431 8.954.57.418 1.097.795 1.59 1.147 2.153 1.54 3.642 2.604 5.15 4.56.583.755.875 1.133 1.137 1.233.26.1.453.1.714 0 .263-.1.555-.476 1.139-1.23 1.515-1.956 3.004-3.02 5.156-4.558.494-.354 1.023-.732 1.596-1.152 3.392-2.517 3.392-6.542 1.43-8.954-2.212-2.668-6.323-2.854-8.727-.302-.36.382-.682.825-.953 1.33a6.264 6.264 0 0 0-.951-1.33Zm9.473 1.255a4.343 4.343 0 0 0-7.2.786L10.99 6.32 9.67 3.858C8.112.958 4.385.776 2.489 3.071 1.043 4.853.984 7.886 3.649 9.867c.533.39 1.036.75 1.516 1.093 2.175 1.552 3.867 2.76 5.522 4.904l.308.397.308-.395c1.661-2.144 3.352-3.351 5.525-4.902.483-.344.988-.705 1.522-1.097 2.665-1.98 2.607-5.013 1.163-6.795Z" clip-rule="evenodd"/>
	</symbol>
	<symbol id="profile"
		viewBox="0 0 24 24" fill="none">
		<path fill="currentColor" fill-rule="evenodd" d="M16.9005 18.4459C19.0935 16.7057 20.5 14.0171 20.5 11c0-5.2467-4.2533-9.5-9.5-9.5S1.5 5.7533 1.5 11c0 3.017 1.4064 5.7056 3.5994 7.4458 1.3664-1.455 3.2905-2.3826 5.4332-2.4428.1087-.003.2344-.003.4519-.003h.0309c.2175 0 .3431 0 .4519.003 2.1428.0602 4.0668.9878 5.4332 2.4429Zm-1.2667.8493c-1.0895-1.0723-2.5696-1.7468-4.2086-1.7927-.0849-.0024-.188-.0025-.4253-.0025-.2372 0-.3403.0001-.4252.0025-1.639.0459-3.119.7204-4.2085 1.7927C7.7369 20.0626 9.3174 20.5 11 20.5c1.6826 0 3.263-.4374 4.6338-1.2048ZM11 22c6.0751 0 11-4.9249 11-11S17.0751 0 11 0 0 4.9249 0 11s4.9249 11 11 11Zm4.2824-12.9008-.1081 1.514C15.0179 12.8032 13.1956 14.5 11 14.5c-2.1956 0-4.0179-1.6968-4.1743-3.8868l-.1082-1.514C6.54 6.614 8.5084 4.5 11 4.5s4.46 2.114 4.2824 4.5992Zm-1.4961-.1068-.1082 1.514C13.5778 11.9114 12.4086 13 11 13s-2.5778-1.0886-2.6781-2.4936l-.1082-1.514C8.0982 7.3754 9.379 6 11 6c1.6211 0 2.9018 1.3754 2.7863 2.9924Z" clip-rule="evenodd"/>
	</symbol>
	<symbol id="map-marker"
		viewBox="0 0 18 24" fill="none">
		<path fill="currentColor" fill-rule="evenodd" d="M16.5 9.23c0 2.6-1.17 5.2-2.74 7.5a29.92 29.92 0 0 1-4.59 5.16.25.25 0 0 1-.17.07.25.25 0 0 1-.17-.07 29.92 29.92 0 0 1-4.6-5.16c-1.56-2.3-2.73-4.9-2.73-7.5C1.5 4.93 4.9 1.5 9 1.5s7.5 3.43 7.5 7.73Zm1.5 0c0 6.07-5.4 11.6-7.83 13.78-.67.6-1.67.6-2.34 0C5.39 20.82 0 15.3 0 9.23 0 4.13 4.03 0 9 0s9 4.13 9 9.23ZM11.5 9a2.5 2.5 0 1 1-5 0 2.5 2.5 0 0 1 5 0ZM13 9a4 4 0 1 1-8 0 4 4 0 0 1 8 0Z" clip-rule="evenodd"/>
	</symbol>
	<symbol id="search"
		viewBox="0 0 22 22" fill="none">
		<path fill="currentColor" fill-rule="evenodd" d="M16.5 9a7.5 7.5 0 1 1-15 0 7.5 7.5 0 0 1 15 0Zm-1.688 6.872a9 9 0 1 1 1.06-1.06l5.658 5.658a.75.75 0 1 1-1.06 1.06l-5.658-5.658Z" clip-rule="evenodd"/>
	</symbol>
	<symbol id="logo"
		viewBox="0 0 170 26" fill="none">
		<path fill="currentColor" fill-rule="evenodd" d="M22.829 17.12h-9.133V.848h-1.78v17.35h13.102l-2.24 5.173c.047-.011.102-.027.162-.044.16-.047.361-.105.564-.117 1.16-.074 1.73-.624 1.703-1.837-.006-.449.13-.91.262-1.357l.066-.224c.171-.604.364-1.202.566-1.83v-.001c.087-.27.175-.544.264-.826h-1.74V.833h-1.843c.02.873.044 1.741.069 2.607.052 1.857.104 3.7.11 5.542.005 1.854-.037 3.707-.079 5.572v.001c-.02.853-.038 1.708-.053 2.566Zm74.232-.716c-1.047-1.17-1.482-2.58-1.632-4.167.067-.26.123-.527.179-.793.12-.574.242-1.149.472-1.677 1.2-2.743 4.552-3.235 6.449-.914 1.63 1.995 1.946 4.283.87 6.64-1.205 2.643-4.394 3.077-6.338.91Zm8.969-15.34.012-.072a22.56 22.56 0 0 0-.536.13c-.373.095-.727.185-1.089.228-.735.083-1.472.154-2.209.224-1.075.103-2.15.206-3.221.35-2.92.398-4.758 2.198-5.045 5.118-.183 1.855-.152 3.737-.122 5.605l.003.146c.042 2.723 2.118 5.119 4.779 5.637 2.729.53 5.451-.895 6.607-3.455 1.123-2.498.35-5.455-1.871-7.137a5.906 5.906 0 0 0-7.376.172c-.345.286-.703.556-1.013.79l-.316.24c-.538-2.319.772-4.804 3.307-5.41 1.434-.346 2.94-.428 4.431-.51.203-.01.406-.022.609-.034l.16-.009c1.934-.113 1.961-.115 2.865-1.91a.338.338 0 0 0 .025-.104ZM43.553 7.861c1.268.706 1.628 1.94 1.632 3.4h-7.56c.142-1.302.598-2.398 1.676-3.118 1.343-.899 2.81-1.088 4.252-.282Zm-5.995 4.296h9.53c.149-3.785-2.85-6.154-6.618-5.36-2.663.563-4.597 2.777-4.734 5.423-.145 2.778 1.41 5.203 3.964 5.99 2.244.694 4.378.296 6.35-.964.868-.553.918-.724.652-1.816-1.873 1.888-3.985 3.068-6.66 1.859-1.67-.757-2.737-3.129-2.484-5.132Zm81.916 4.86c-1.585-1.186-2.139-2.87-2.229-5.321.043-.13.087-.298.137-.491.145-.551.342-1.307.71-1.968 1.1-1.985 3.573-2.43 5.411-1.097 2.395 1.735 2.959 5.91 1.116 8.224-1.268 1.591-3.497 1.89-5.145.653Zm-3.943-4.457c-.008 3.281 2.672 5.967 5.952 5.967 3.281-.002 5.981-2.696 5.971-5.959-.011-3.268-2.714-5.94-6-5.93-3.246.008-5.918 2.68-5.923 5.922Zm44.304-5.526h-1.764c.008.102.011.2.015.296.007.192.013.37.053.54.233.982-.008 1.797-.688 2.56-.449.507-.846 1.06-1.243 1.613a43.04 43.04 0 0 1-.54.741c-.134.181-.275.358-.416.536l-.055.07-.078.098-.03-.014h-.001l-.145-.068.143-4.004v-.01l.084-2.353h-1.693v11.08h1.74c-.014-.223-.03-.442-.045-.66v-.001a84.53 84.53 0 0 1-.115-1.883c-.011-.21-.024-.48.087-.632.801-1.11 1.623-2.207 2.494-3.369l.557-.742v7.292h1.64V7.035ZM29.804 11.23c-.177-.002-.359-.004-.546-.004V7.876c.873-.283 1.86-.043 2.33.566.487.632.516 1.784.02 2.493a.775.775 0 0 1-.522.28c-.417.024-.836.02-1.282.016Zm-.456 6.148v-5.202c1.21-.383 2.25-.159 2.918.65.635.775.777 2.372.247 3.287-.686 1.184-1.793 1.41-3.165 1.265Zm4.888-3.69c-.28-1.009-1.003-1.655-1.912-2.177.065-.061.126-.115.183-.166.104-.091.195-.171.272-.263.63-.744.879-1.587.588-2.538-.271-.889-.993-1.339-1.822-1.405-.91-.07-1.827-.055-2.716-.04-.37.007-.736.014-1.095.014v10.995c.346 0 .701.013 1.063.025.823.028 1.678.058 2.514-.054 2.294-.303 3.523-2.242 2.925-4.39Zm101.51 4.439V7.032h-1.651v4.193h-3.212c.079-1.433.153-2.796.227-4.172h-1.723v11.05h1.641v-5.908h3.077v5.933h1.641ZM87.583 9.074c.433-1.017 1.37-1.452 2.828-1.23v.875c0 1.321.001 2.66-.014 4 0 .122-.153.301-.277.354-.913.392-2.03-.008-2.453-.923-.46-.999-.516-2.047-.084-3.076Zm2.64 9.05h1.71V7.065c-.354 0-.709-.007-1.064-.015-.795-.016-1.592-.033-2.381.033-1.303.11-2.229.896-2.498 2.158-.18.831-.14 1.763.035 2.6.213 1.017 1.078 1.583 2.072 2.03l-1.724 2.705v.002l-1.013 1.588c.141 0 .273-.005.398-.008.262-.009.493-.016.72.018.58.084.855-.166 1.105-.68.28-.575.598-1.133.915-1.69.24-.424.482-.848.707-1.28.266-.514.636-.667 1.258-.572l-.24 4.172ZM73.65 23.72l-.52 1.701.488-.237h.002c.459-.222.966-.467 1.462-.735.131-.071.202-.312.245-.486.321-1.364.638-2.73.954-4.095l.002-.004v-.005a638.532 638.532 0 0 1 1.808-7.648c.291-1.188.653-2.359 1.017-3.54.166-.537.333-1.076.494-1.62h-1.38l-.633 2.752-.016.072-.012.052-.007.03-1.217 5.296-.131-.005a7.745 7.745 0 0 1-.239-.01l-1.061-4.685-.004-.018-.791-3.492h-1.815l.016.093c.01.068.019.116.032.163.24.834.483 1.668.725 2.501l.002.004v.005c.64 2.2 1.28 4.4 1.897 6.607.25.896.398 1.808.095 2.754-.489 1.517-.953 3.04-1.413 4.55ZM151.388 7.56l.377-.569c-.128 0-.25.003-.368.005-.256.006-.489.01-.719-.013-.516-.052-.762.116-.925.657-.16.531-.369 1.047-.578 1.563-.178.44-.356.878-.503 1.328-.235.717-.646.915-1.317.688V7.038h-1.616v11.066h1.624v-5.901c.742-.221 1.089.066 1.306.764.202.662.439 1.314.676 1.966h.001c.207.57.414 1.141.599 1.719l.024.074c.475 1.475.477 1.482 2.068 1.433.045-.002.091-.02.131-.036a.718.718 0 0 1 .043-.016 691.19 691.19 0 0 1-.712-1.886c-.597-1.583-1.19-3.159-1.804-4.727-.219-.556-.217-1.041.106-1.529a432.46 432.46 0 0 1 1.581-2.394l.006-.01Zm-39.256.359v10.163h1.634V7.056h-4.588c-.109.632-.207 1.257-.305 1.876-.222 1.413-.438 2.792-.761 4.146-.323 1.367-.753 2.71-1.183 4.057a118.01 118.01 0 0 0-.555 1.765c.165-.055.337-.11.515-.168.448-.144.928-.299 1.394-.486.143-.058.261-.319.291-.503.086-.546.163-1.094.239-1.642.113-.814.227-1.627.375-2.435.251-1.366.536-2.727.82-4.081V9.58l.001-.002c.116-.554.232-1.107.345-1.659h1.778ZM61.35 15.576c-.259 1.326-1.205 1.911-2.904 1.808v-5.176c1.466-.585 2.6-.026 2.901 1.552.11.586.116 1.232.003 1.816Zm-4.491.799c-.023.588-.047 1.183-.067 1.79.294 0 .59 0 .89.002.667.003 1.343.006 2.02-.005 1.98-.034 3.275-1.373 3.293-3.387.021-2.066-1.318-3.51-3.31-3.563-.297-.008-.593-.006-.92-.004l-.472.001.119-1.925v-.01c.047-.748.092-1.488.14-2.232H56.79c.02.596.044 1.187.068 1.774a89.57 89.57 0 0 1 .103 3.716c0 1.269-.05 2.537-.102 3.843Zm85.77-.799c-.255 1.324-1.202 1.911-2.903 1.808V12.21c1.458-.59 2.6-.028 2.901 1.547.111.589.115 1.232.002 1.82Zm-4.504-8.541v11.127c.279 0 .568.002.863.004.681.005 1.397.01 2.114-.01 1.886-.055 3.139-1.393 3.173-3.357.037-1.997-1.263-3.487-3.139-3.579-.319-.016-.641-.012-.996-.007a43.18 43.18 0 0 1-.565.004l.095-1.555.003-.053.007-.1c.05-.825.099-1.642.151-2.474h-1.706Zm-82.858.578.112-.568H48.23c.05.26.093.498.135.724l.002.007.093.505.576-.088c.678-.103 1.314-.2 1.938-.297V18.11h1.642V7.894l2.349.358h.001l.17.026.13-.665Zm10.647 10.52h-1.646V7.04h1.646v11.092Zm101.513-7.778 1.97 1.969-1.97 1.969-1.97-1.97 1.97-1.968ZM4.923 12.324l-1.97-1.969-1.97 1.969 1.97 1.969 1.97-1.97Z" clip-rule="evenodd"/>
	</symbol>
	<symbol id="prev"
		viewBox="0 0 20 18" fill="none">
		<path fill="currentColor" fill-rule="evenodd" d="M20 9a1 1 0 0 1-1 1H3.41l6.3 6.3a1 1 0 0 1-1.42 1.4l-8-8a1 1 0 0 1 0-1.4l8-8a1 1 0 0 1 1.42 1.4L3.4 8H19a1 1 0 0 1 1 1Z" clip-rule="evenodd"/>
	</symbol>
</svg>