<svg xmlns="http://www.w3.org/2000/svg" width="70" height="84" fill="none"><path fill="#EBEBEC" fill-rule="evenodd" d="M35 0a15 15 0 0 0-15 15v1h.8c-1.2 0-2.39 0-3.41.09-1.24.09-2.7.31-4.18 1a12 12 0 0 0-5.11 4.43 12.07 12.07 0 0 0-1.59 4c-.24 1.1-.42 2.39-.61 3.7l-.03.17L.62 66.2l-.03.21C.34 68.11.1 69.75.03 71.14a12.2 12.2 0 0 0 .7 5.22 12 12 0 0 0 5.28 6.1c1.77.99 3.57 1.3 5.07 1.42 1.39.12 3.04.12 4.77.12h38.28c1.73 0 3.39 0 4.77-.12 1.5-.13 3.3-.43 5.07-1.43a12 12 0 0 0 5.28-6.09c.74-1.89.79-3.71.7-5.22a59.2 59.2 0 0 0-.55-4.74l-5.23-36.58-.09-.6c-.18-1.31-.37-2.6-.61-3.7-.27-1.22-.7-2.62-1.58-4a12 12 0 0 0-5.11-4.43c-1.5-.69-2.94-.91-4.19-1a46.9 46.9 0 0 0-3.4-.09h.8v-1A15 15 0 0 0 35 0Zm9 16v-1a9 9 0 0 0-18 0v1h18Z" clip-rule="evenodd"/><path fill="#797979" d="M47.5 43a3.5 3.5 0 1 0 0-7 3.5 3.5 0 0 0 0 7ZM22.5 43a3.5 3.5 0 1 0 0-7 3.5 3.5 0 0 0 0 7ZM45.03 65c-.38-.02-.42-.72-.64-4.24-.15-1.75-.3-4.24-1.18-7.51a15.74 15.74 0 0 0-2.33-5.17 7.02 7.02 0 0 0-5.94-3.05c-.2.02-.62.03-.9.06-.31.06-.62.1-.92.17a7.01 7.01 0 0 0-4 2.82 15.74 15.74 0 0 0-2.33 5.17c-.87 3.27-1.03 5.76-1.18 7.51-.22 3.52-.26 4.22-.64 4.24-.33.02-.77-.22-.95-3.64-.05-1.7-.07-4.23.68-7.86.42-1.8 1.01-3.92 2.43-6.13A9.07 9.07 0 0 1 35.06 43c.4.03.77.03 1.2.08.44.08.91.13 1.3.26.41.13.82.24 1.19.42a9.94 9.94 0 0 1 4.12 3.6 18.55 18.55 0 0 1 2.43 6.14c.75 3.63.73 6.15.68 7.86-.18 3.42-.62 3.66-.95 3.64Z"/></svg>