<svg xmlns="http://www.w3.org/2000/svg" width="88" height="76" fill="none"><path fill="#EBEBEC" d="M38 67.12c2.33 3.02 3.5 4.53 4.55 4.94 1.04.4 1.8.4 2.85 0s2.22-1.9 4.55-4.92c7.46-9.62 14.75-13.85 27.01-22.84C90.53 34.23 90.53 18.13 82.7 8.48a23.37 23.37 0 0 0-38.73 4.11A23.27 23.27 0 0 0 5.31 8.5c-7.84 9.64-7.84 25.74 5.73 35.8 12.25 9 19.54 13.22 26.96 22.83Z"/><path fill="#797979" d="M53.38 40.96c-.48.15-.7-.06-1.58-1.13a8.48 8.48 0 0 0-4.6-2.69c-.46-.12-.94-.2-1.44-.25-.44-.09-1.25-.07-1.76-.1-2.45.03-4.25.52-5.44 1.18a8.48 8.48 0 0 0-2.36 1.86c-.46.52-.7.86-.94 1.02a.74.74 0 0 1-.64.11c-.42-.1-.96-.4-.33-2.06a7 7 0 0 1 2.64-3.01c1.55-1.08 3.99-1.88 7.07-1.89.86.05 1.36.02 2.15.15.73.08 1.37.23 1.96.4 1.18.35 2.19.8 2.96 1.34a7 7 0 0 1 2.64 3.01c.63 1.65.1 1.97-.33 2.06Z"/><path fill="#A2A2A2" d="M44.1 39h-.13c-2.18 0-3.42.78-3.8 1.48-.4.73 0 1.06.37 1.21.34.13.47.31.7.31.04 0 .09 0 .14-.02.3-.06 1.01-.38 2.59-.4 1.7.02 2.33.34 2.65.4l.14.01c.22 0 .37-.14.7-.3.38-.14.77-.49.38-1.2-.37-.7-1.69-1.49-3.75-1.49Z" opacity=".5"/><path fill="#797979" d="M32 27.2c0 .41-.14.66-.83.81-.67.2-1.92.26-4 1-2.06.77-3.05 1.51-3.68 1.8-.61.3-.84.21-1.15-.07-.29-.3-.53-.62-.12-1.3.42-.64 1.47-1.74 4.08-2.73 2.64-.92 4.17-.76 4.9-.54.75.24.8.61.8 1.03ZM56 26.8c0-.43.14-.67.93-.78.77-.06 2.24-.05 4.62.84 2.36.94 3.48 1.9 4.03 2.5.54.61.5.95.2 1.23-.29.3-.57.53-1.23.34-.67-.17-1.7-.85-3.85-1.71-2.17-.8-3.37-.98-4-1.3-.64-.31-.7-.7-.7-1.13Z"/></svg>