<svg xmlns="http://www.w3.org/2000/svg" width="18" height="21" fill="none"><path fill="#A2A2A2" fill-rule="evenodd" d="M9 0a3.75 3.75 0 0 0-3.75 3.75V4h.201c-.301 0-.596.002-.852.021-.31.024-.672.08-1.045.25A3 3 0 0 0 2.276 5.38a3.018 3.018 0 0 0-.395 1c-.061.273-.107.597-.154.926L.399 16.6c-.061.428-.12.838-.14 1.185-.02.377-.009.833.175 1.305a3 3 0 0 0 1.32 1.523c.442.248.892.325 1.268.357.347.03.76.03 1.193.03h9.57c.432 0 .846 0 1.193-.03.375-.032.826-.108 1.267-.357a3 3 0 0 0 1.32-1.523c.184-.472.196-.928.175-1.305-.02-.347-.078-.757-.14-1.185l-1.327-9.295c-.047-.328-.093-.652-.154-.926a3.018 3.018 0 0 0-.395-1 3 3 0 0 0-1.278-1.108 3.018 3.018 0 0 0-1.046-.25A11.74 11.74 0 0 0 12.548 4h.202v-.25A3.75 3.75 0 0 0 9 0Zm2.25 4v-.25a2.25 2.25 0 0 0-4.5 0V4h4.5Zm3.211 2.19c.177.275.229.64.333 1.37l1.314 9.2c.136.945.203 1.418.06 1.785a1.5 1.5 0 0 1-.66.761c-.344.194-.82.194-1.775.194H4.267c-.954 0-1.432 0-1.775-.194a1.5 1.5 0 0 1-.66-.76c-.143-.368-.076-.84.06-1.785l1.313-9.2c.105-.731.157-1.096.333-1.371a1.5 1.5 0 0 1 .64-.554C4.473 5.5 4.842 5.5 5.58 5.5h6.837c.738 0 1.107 0 1.404.136a1.5 1.5 0 0 1 .64.554Z" clip-rule="evenodd"/></svg>